<svg width="297" height="126" viewBox="0 0 297 126" fill="none" xmlns="http://www.w3.org/2000/svg">
<path d="M0.320001 68.032V56.512L50.496 35.776L53.44 44.608L8.384 62.4L53.44 82.496L50.496 91.328L0.320001 68.032ZM55.877 58.176C58.949 58.176 61.381 57.3227 63.173 55.616C65.0503 53.9093 65.989 51.008 65.989 46.912V21.696C65.989 18.112 66.373 14.9973 67.141 12.352C67.909 9.62133 69.1463 7.36 70.853 5.56799C72.5597 3.776 74.821 2.45333 77.637 1.6C80.5383 0.746661 84.0797 0.319992 88.261 0.319992V7.99999C83.2263 7.99999 79.8557 8.85333 78.149 10.56C76.4423 12.2667 75.589 15.3387 75.589 19.776V44.096C75.589 49.728 74.693 53.9947 72.901 56.896C71.1943 59.712 68.7197 61.7173 65.477 62.912C68.7197 64.1067 71.1943 66.1547 72.901 69.056C74.693 71.9573 75.589 76.224 75.589 81.856V106.304C75.589 108.523 75.7597 110.4 76.101 111.936C76.5277 113.472 77.2103 114.667 78.149 115.52C79.0877 116.459 80.3677 117.099 81.989 117.44C83.6103 117.867 85.701 118.08 88.261 118.08V125.76C84.0797 125.76 80.5383 125.333 77.637 124.48C74.821 123.627 72.5597 122.304 70.853 120.512C69.1463 118.72 67.909 116.459 67.141 113.728C66.373 111.083 65.989 107.968 65.989 104.384V79.04C65.989 74.944 65.0503 72.0427 63.173 70.336C61.381 68.6293 58.949 67.776 55.877 67.776V58.176ZM90.545 31.552C90.545 28.5653 91.0143 25.92 91.953 23.616C92.977 21.312 94.2997 19.392 95.921 17.856C97.5423 16.32 99.4197 15.168 101.553 14.4C103.686 13.5467 105.905 13.12 108.209 13.12C110.513 13.12 112.732 13.5467 114.865 14.4C116.998 15.168 118.876 16.32 120.497 17.856C122.118 19.392 123.398 21.312 124.337 23.616C125.276 25.92 125.745 28.5653 125.745 31.552C125.745 34.5387 125.276 37.184 124.337 39.488C123.398 41.7067 122.118 43.584 120.497 45.12C118.876 46.656 116.998 47.808 114.865 48.576C112.732 49.344 110.513 49.728 108.209 49.728C105.905 49.728 103.686 49.344 101.553 48.576C99.4197 47.808 97.5423 46.656 95.921 45.12C94.2997 43.584 92.977 41.7067 91.953 39.488C91.0143 37.184 90.545 34.5387 90.545 31.552ZM99.249 31.552C99.249 35.136 100.017 37.952 101.553 40C103.174 42.048 105.393 43.072 108.209 43.072C111.025 43.072 113.201 42.048 114.737 40C116.358 37.952 117.169 35.136 117.169 31.552C117.169 27.968 116.358 25.1093 114.737 22.976C113.201 20.8427 111.025 19.776 108.209 19.776C105.393 19.776 103.174 20.8427 101.553 22.976C100.017 25.1093 99.249 27.968 99.249 31.552ZM129.005 67.264V58.048H168.045V67.264H129.005ZM171.22 31.552C171.22 28.5653 171.689 25.92 172.628 23.616C173.652 21.312 174.975 19.392 176.596 17.856C178.217 16.32 180.095 15.168 182.228 14.4C184.361 13.5467 186.58 13.12 188.884 13.12C191.188 13.12 193.407 13.5467 195.54 14.4C197.673 15.168 199.551 16.32 201.172 17.856C202.793 19.392 204.073 21.312 205.012 23.616C205.951 25.92 206.42 28.5653 206.42 31.552C206.42 34.5387 205.951 37.184 205.012 39.488C204.073 41.7067 202.793 43.584 201.172 45.12C199.551 46.656 197.673 47.808 195.54 48.576C193.407 49.344 191.188 49.728 188.884 49.728C186.58 49.728 184.361 49.344 182.228 48.576C180.095 47.808 178.217 46.656 176.596 45.12C174.975 43.584 173.652 41.7067 172.628 39.488C171.689 37.184 171.22 34.5387 171.22 31.552ZM179.924 31.552C179.924 35.136 180.692 37.952 182.228 40C183.849 42.048 186.068 43.072 188.884 43.072C191.7 43.072 193.876 42.048 195.412 40C197.033 37.952 197.844 35.136 197.844 31.552C197.844 27.968 197.033 25.1093 195.412 22.976C193.876 20.8427 191.7 19.776 188.884 19.776C186.068 19.776 183.849 20.8427 182.228 22.976C180.692 25.1093 179.924 27.968 179.924 31.552ZM241.168 67.776C238.096 67.776 235.621 68.6293 233.744 70.336C231.952 72.0427 231.056 74.944 231.056 79.04V104.384C231.056 107.968 230.672 111.083 229.904 113.728C229.136 116.459 227.899 118.72 226.192 120.512C224.485 122.304 222.181 123.627 219.28 124.48C216.464 125.333 212.965 125.76 208.784 125.76V118.08C211.344 118.08 213.435 117.867 215.056 117.44C216.677 117.099 217.957 116.459 218.896 115.52C219.835 114.667 220.475 113.472 220.816 111.936C221.243 110.4 221.456 108.523 221.456 106.304V81.856C221.456 76.224 222.309 71.9573 224.016 69.056C225.808 66.1547 228.325 64.1067 231.568 62.912C228.325 61.7173 225.808 59.712 224.016 56.896C222.309 53.9947 221.456 49.728 221.456 44.096V19.776C221.456 15.3387 220.603 12.2667 218.896 10.56C217.189 8.85333 213.819 7.99999 208.784 7.99999V0.319992C212.965 0.319992 216.464 0.746661 219.28 1.6C222.181 2.45333 224.485 3.776 226.192 5.56799C227.899 7.36 229.136 9.62133 229.904 12.352C230.672 14.9973 231.056 18.112 231.056 21.696V46.912C231.056 51.008 231.952 53.9093 233.744 55.616C235.621 57.3227 238.096 58.176 241.168 58.176V67.776ZM246.524 91.328L243.58 82.496L288.636 62.4L243.58 44.608L246.524 35.776L296.7 56.512V68.032L246.524 91.328Z" fill="black"/>
</svg>
